<svg xmlns="http://www.w3.org/2000/svg" width="780" height="430" viewBox="0 0 780 430" font-family="-apple-system,BlinkMacSystemFont,'Segoe UI',Helvetica,Arial,sans-serif">
<rect width="780" height="430" fill="#fcfcfb"/>
<text x="72" y="26" font-size="15" font-weight="600" fill="#0b0b0b">27-cell search (cell = 1x radius) vs. 8-cell search (cell = 2x radius)</text>
<text x="72" y="44" font-size="11.5" fill="#52514e">Above 1.0x the finer 27-cell grid is faster. It scans 27/64 of the volume, so it wins once neighbor counts dominate.</text>
<line x1="72" y1="355.9" x2="648" y2="355.9" stroke="#e8e7e3" stroke-width="1"/>
<text x="63" y="359.9" font-size="11" fill="#7a7975" text-anchor="end">1.0x</text>
<line x1="72" y1="300.8" x2="648" y2="300.8" stroke="#e8e7e3" stroke-width="1"/>
<text x="63" y="304.8" font-size="11" fill="#7a7975" text-anchor="end">1.5x</text>
<line x1="72" y1="245.6" x2="648" y2="245.6" stroke="#e8e7e3" stroke-width="1"/>
<text x="63" y="249.6" font-size="11" fill="#7a7975" text-anchor="end">2.0x</text>
<line x1="72" y1="190.4" x2="648" y2="190.4" stroke="#e8e7e3" stroke-width="1"/>
<text x="63" y="194.4" font-size="11" fill="#7a7975" text-anchor="end">2.5x</text>
<line x1="72" y1="135.2" x2="648" y2="135.2" stroke="#e8e7e3" stroke-width="1"/>
<text x="63" y="139.2" font-size="11" fill="#7a7975" text-anchor="end">3.0x</text>
<line x1="72" y1="80.1" x2="648" y2="80.1" stroke="#e8e7e3" stroke-width="1"/>
<text x="63" y="84.1" font-size="11" fill="#7a7975" text-anchor="end">3.5x</text>
<line x1="72" y1="355.9" x2="648" y2="355.9" stroke="#7a7975" stroke-width="1" stroke-dasharray="4 4"/>
<text x="78.0" y="349.9" font-size="10.5" fill="#7a7975" text-anchor="start">break-even</text>
<line x1="72" y1="378" x2="648" y2="378" stroke="#c9c8c3" stroke-width="1"/>
<line x1="153.5" y1="378" x2="153.5" y2="382" stroke="#c9c8c3" stroke-width="1"/>
<text x="153.5" y="396" font-size="11" fill="#7a7975" text-anchor="middle">10K</text>
<line x1="358.3" y1="378" x2="358.3" y2="382" stroke="#c9c8c3" stroke-width="1"/>
<text x="358.3" y="396" font-size="11" fill="#7a7975" text-anchor="middle">100K</text>
<line x1="563.0" y1="378" x2="563.0" y2="382" stroke="#c9c8c3" stroke-width="1"/>
<text x="563.0" y="396" font-size="11" fill="#7a7975" text-anchor="middle">1M</text>
<path d="M91.8,363.4 L153.5,361.6 L235.0,349.1 L296.6,349.1 L358.3,302.2 L419.9,324.4 L501.4,273.5 L563.0,242.1 L624.7,228.4" fill="none" stroke="#eb6834" stroke-width="2" stroke-linejoin="round" stroke-linecap="round"/>
<circle cx="91.8" cy="363.4" r="4" fill="#eb6834" stroke="#fcfcfb" stroke-width="2"/>
<circle cx="153.5" cy="361.6" r="4" fill="#eb6834" stroke="#fcfcfb" stroke-width="2"/>
<circle cx="235.0" cy="349.1" r="4" fill="#eb6834" stroke="#fcfcfb" stroke-width="2"/>
<circle cx="296.6" cy="349.1" r="4" fill="#eb6834" stroke="#fcfcfb" stroke-width="2"/>
<circle cx="358.3" cy="302.2" r="4" fill="#eb6834" stroke="#fcfcfb" stroke-width="2"/>
<circle cx="419.9" cy="324.4" r="4" fill="#eb6834" stroke="#fcfcfb" stroke-width="2"/>
<circle cx="501.4" cy="273.5" r="4" fill="#eb6834" stroke="#fcfcfb" stroke-width="2"/>
<circle cx="563.0" cy="242.1" r="4" fill="#eb6834" stroke="#fcfcfb" stroke-width="2"/>
<circle cx="624.7" cy="228.4" r="4" fill="#eb6834" stroke="#fcfcfb" stroke-width="2"/>
<circle cx="634.7" cy="228.4" r="4" fill="#eb6834"/>
<text x="644.7" y="232.4" font-size="11.5" fill="#0b0b0b">scattered</text>
<path d="M91.8,360.3 L153.5,359.4 L235.0,350.0 L296.6,368.6 L358.3,288.2 L419.9,234.6 L501.4,199.3 L563.0,135.7 L624.7,78.5" fill="none" stroke="#1baf7a" stroke-width="2" stroke-linejoin="round" stroke-linecap="round"/>
<circle cx="91.8" cy="360.3" r="4" fill="#1baf7a" stroke="#fcfcfb" stroke-width="2"/>
<circle cx="153.5" cy="359.4" r="4" fill="#1baf7a" stroke="#fcfcfb" stroke-width="2"/>
<circle cx="235.0" cy="350.0" r="4" fill="#1baf7a" stroke="#fcfcfb" stroke-width="2"/>
<circle cx="296.6" cy="368.6" r="4" fill="#1baf7a" stroke="#fcfcfb" stroke-width="2"/>
<circle cx="358.3" cy="288.2" r="4" fill="#1baf7a" stroke="#fcfcfb" stroke-width="2"/>
<circle cx="419.9" cy="234.6" r="4" fill="#1baf7a" stroke="#fcfcfb" stroke-width="2"/>
<circle cx="501.4" cy="199.3" r="4" fill="#1baf7a" stroke="#fcfcfb" stroke-width="2"/>
<circle cx="563.0" cy="135.7" r="4" fill="#1baf7a" stroke="#fcfcfb" stroke-width="2"/>
<circle cx="624.7" cy="78.5" r="4" fill="#1baf7a" stroke="#fcfcfb" stroke-width="2"/>
<circle cx="634.7" cy="78.5" r="4" fill="#1baf7a"/>
<text x="644.7" y="82.5" font-size="11.5" fill="#0b0b0b">coherent</text>
<text x="360" y="422" font-size="11.5" fill="#52514e" text-anchor="middle">Number of boids</text>
<text transform="translate(16,218) rotate(-90)" font-size="11.5" fill="#52514e" text-anchor="middle">Speedup of 27-cell over 8-cell</text>
</svg>